<?xml version="1.0" standalone="no"?>
<!DOCTYPE svg PUBLIC "-//W3C//DTD SVG 20010904//EN"
 "http://www.w3.org/TR/2001/REC-SVG-20010904/DTD/svg10.dtd">
<svg version="1.0" xmlns="http://www.w3.org/2000/svg"
 width="500.000000pt" height="500.000000pt" viewBox="0 0 500.000000 500.000000"
 preserveAspectRatio="xMidYMid meet">

<g transform="translate(0.000000,500.000000) scale(0.100000,-0.100000)"
fill="#000000" stroke="none">
<path d="M2534 4160 c-34 -13 -64 -59 -64 -97 0 -83 123 -127 184 -67 49 50
29 141 -36 163 -36 13 -55 13 -84 1z m64 -93 c2 -37 -1 -49 -13 -54 -22 -8
-35 13 -35 58 0 40 7 51 30 47 10 -2 16 -17 18 -51z"/>
<path d="M2154 4127 c6 -34 -13 -99 -34 -112 -5 -3 -10 -15 -10 -26 0 -16 7
-19 40 -19 33 0 40 3 40 20 0 11 -6 20 -12 20 -8 1 -5 7 6 15 15 11 23 12 40
3 13 -7 16 -13 8 -16 -6 -2 -12 -12 -12 -23 0 -16 7 -19 50 -19 58 0 60 6 29
71 -12 24 -21 61 -21 82 l2 37 -66 0 -66 0 6 -33z m66 -54 c0 -7 -7 -13 -16
-13 -11 0 -14 5 -10 16 3 9 6 21 6 27 0 16 20 -14 20 -30z"/>
<path d="M2345 4065 l0 -95 45 0 45 0 0 95 0 95 -45 0 -45 0 0 -95z"/>
<path d="M2700 4120 c0 -44 23 -57 33 -19 3 12 10 18 16 14 14 -8 14 -92 1
-100 -5 -3 -10 -15 -10 -26 0 -16 7 -19 55 -19 48 0 55 3 55 19 0 11 -4 23
-10 26 -13 8 -13 92 1 100 6 4 13 -2 16 -14 10 -38 33 -25 33 19 l0 40 -95 0
-95 0 0 -40z"/>
<path d="M3127 3952 c3 -26 6 -47 7 -47 1 0 41 -20 89 -45 187 -94 407 -291
535 -477 129 -189 216 -404 254 -628 27 -159 22 -431 -10 -571 -59 -255 -191
-527 -324 -669 -15 -16 -28 -37 -28 -46 0 -25 21 -79 31 -79 14 0 116 126 179
222 290 437 348 977 158 1473 -143 376 -461 715 -822 880 l-76 34 7 -47z"/>
<path d="M1755 3942 c-176 -94 -288 -177 -423 -314 -417 -423 -565 -1053 -381
-1622 34 -104 129 -303 186 -388 51 -76 172 -228 182 -228 11 0 31 47 31 74 0
12 -12 33 -26 47 -40 37 -159 220 -203 312 -48 99 -103 262 -128 377 -14 68
-18 129 -18 305 1 192 4 232 23 315 69 289 197 535 383 733 121 130 303 267
432 326 46 21 47 23 47 66 0 25 -3 45 -7 45 -5 0 -48 -22 -98 -48z"/>
<path d="M2052 3900 c-16 -26 -16 -182 0 -198 8 -8 48 -12 115 -12 70 0 103
-4 103 -11 0 -6 -18 -59 -39 -118 -48 -129 -183 -500 -218 -596 -13 -38 -32
-88 -40 -110 -8 -22 -32 -87 -53 -145 -75 -211 -143 -398 -190 -525 -70 -189
-80 -217 -80 -244 0 -27 200 -236 220 -229 7 2 29 51 50 108 l37 105 161 3
162 2 0 140 0 140 -110 0 c-60 0 -110 2 -110 5 0 4 80 229 161 455 17 47 41
114 54 150 50 139 58 161 66 166 10 6 12 -1098 3 -1133 -6 -22 -10 -23 -145
-23 -165 0 -159 5 -159 -129 0 -86 1 -91 23 -96 12 -3 215 -4 450 -3 367 3
429 5 437 18 5 8 10 52 10 97 0 111 -3 113 -177 113 l-133 0 0 568 c1 424 3
562 12 548 6 -11 31 -76 56 -145 24 -69 67 -189 94 -266 27 -77 65 -182 83
-232 l32 -93 -103 0 -104 0 0 -140 0 -140 155 0 c85 0 155 -1 155 -2 0 -24 81
-223 89 -223 38 0 237 211 234 247 0 13 -30 102 -66 198 -35 96 -94 258 -131
360 -37 102 -100 275 -141 385 -40 110 -105 290 -145 400 -40 110 -88 241
-106 291 -19 51 -34 95 -34 98 0 3 43 6 95 6 125 0 135 8 135 118 -1 48 -6 84
-14 95 -12 16 -46 17 -447 17 -422 0 -435 -1 -447 -20z"/>
<path d="M2095 3612 c-398 -137 -697 -465 -791 -868 -26 -111 -26 -400 0 -494
68 -246 165 -413 336 -578 234 -228 528 -344 865 -344 293 0 513 75 756 259
215 162 358 376 431 648 25 93 35 314 18 426 -33 231 -146 460 -313 636 -140
148 -330 266 -522 324 -33 11 -63 19 -67 19 -13 0 -8 -33 11 -76 15 -33 27
-44 58 -54 78 -26 220 -100 288 -151 233 -173 376 -397 430 -674 23 -115 16
-322 -14 -435 -48 -182 -135 -339 -264 -476 -219 -232 -534 -356 -866 -341
-517 22 -921 351 -1043 847 -8 36 -13 116 -12 230 0 160 2 183 27 265 104 346
342 598 684 726 61 23 69 32 87 93 17 56 15 57 -99 18z"/>
<path d="M1465 1459 c-66 -184 -68 -192 -50 -205 25 -19 249 -19 285 -1 19 9
33 34 58 106 18 52 31 95 30 96 -2 1 -25 17 -52 35 -26 18 -81 61 -121 96 -41
35 -75 64 -77 64 -2 0 -35 -86 -73 -191z"/>
<path d="M3400 1599 c-30 -28 -84 -71 -120 -96 -36 -26 -69 -49 -73 -53 -6 -5
45 -176 55 -185 34 -28 250 -36 298 -12 38 19 36 53 -15 188 -26 68 -54 143
-62 167 -9 23 -18 42 -22 42 -3 -1 -31 -23 -61 -51z"/>
<path d="M2327 1199 c-14 -8 -16 -14 -6 -25 15 -18 43 -18 58 0 10 12 8 17 -8
25 -23 13 -21 13 -44 0z"/>
<path d="M2950 1180 c0 -11 5 -20 10 -20 6 0 10 -25 10 -55 0 -30 -4 -55 -10
-55 -5 0 -10 -9 -10 -20 0 -18 7 -20 55 -20 48 0 55 2 55 20 0 11 -4 20 -10
20 -5 0 -10 11 -10 25 0 18 5 25 20 25 17 0 20 -7 20 -45 l0 -45 41 0 40 0 -7
48 c-11 76 -19 85 -70 79 l-44 -5 0 34 c0 34 -1 34 -45 34 -38 0 -45 -3 -45
-20z"/>
<path d="M2458 1174 c-35 -19 -42 -46 -26 -109 13 -49 14 -50 56 -53 37 -3 42
-1 42 17 0 12 -7 21 -15 21 -9 0 -15 9 -15 25 0 16 6 25 15 25 8 0 15 9 15 20
0 11 -7 20 -15 20 -9 0 -15 9 -15 25 0 29 -5 30 -42 9z"/>
<path d="M1840 1120 c0 -11 5 -20 10 -20 6 0 10 -15 10 -34 0 -18 6 -38 13
-43 6 -6 49 -11 95 -11 75 -1 82 1 82 19 0 10 -4 19 -10 19 -5 0 -10 20 -10
45 l0 45 -40 0 c-33 0 -40 -3 -40 -20 0 -11 5 -20 10 -20 16 0 11 -40 -6 -47
-21 -8 -34 13 -34 55 0 31 -2 32 -40 32 -33 0 -40 -3 -40 -20z"/>
<path d="M2070 1120 c0 -11 5 -20 10 -20 6 0 10 -11 10 -25 0 -14 -4 -25 -10
-25 -5 0 -10 -9 -10 -20 0 -18 7 -20 55 -20 48 0 55 2 55 20 0 11 -4 20 -10
20 -5 0 -10 11 -10 25 0 18 5 25 20 25 17 0 20 -7 20 -45 l0 -45 41 0 40 0 -7
48 c-11 79 -12 80 -114 81 -83 0 -90 -2 -90 -19z"/>
<path d="M2314 1075 l0 -65 44 0 c44 0 44 0 38 31 -3 17 -6 47 -6 65 0 33 -1
34 -38 34 l-38 0 0 -65z"/>
<path d="M2577 1122 c-25 -27 -22 -78 5 -96 28 -20 111 -21 127 -2 10 11 8 16
-9 21 -12 4 -27 1 -35 -5 -12 -10 -18 -10 -30 0 -27 22 -16 30 40 30 61 0 71
14 35 50 -27 27 -110 28 -133 2z m84 -35 c-5 -5 -17 -7 -26 -3 -14 5 -15 9 -5
21 10 12 16 13 27 4 9 -8 10 -16 4 -22z"/>
<path d="M2794 1132 c-15 -10 -34 -47 -34 -66 0 -30 41 -56 89 -56 53 1 96 25
71 40 -20 13 -34 12 -47 -1 -18 -18 -43 -2 -43 26 0 28 25 44 43 26 6 -6 21
-11 34 -11 18 0 23 6 23 25 0 24 -2 25 -62 25 -35 0 -68 -4 -74 -8z"/>
</g>
</svg>
